<?xml version="1.0" encoding="UTF-8"?>
<svg version="1.1" xmlns="http://www.w3.org/2000/svg" width="512" height="512">
<path d="M0 0 C0.6814357 0.26153366 1.3628714 0.52306732 2.06495667 0.79252625 C3.57090049 1.37252804 5.07394683 1.96009577 6.57437134 2.55422974 C9.99987456 3.90962221 13.44017622 5.22568588 16.87947083 6.54560852 C18.84159963 7.29903332 20.80298795 8.05438875 22.76371765 8.81144714 C35.80771211 13.8405781 48.92571211 18.67115779 62.03579712 23.52459717 C68.85827157 26.05068921 75.67807467 28.58397759 82.49802208 31.11688232 C84.78077154 31.96466606 87.06357564 32.81230252 89.34638977 33.65991211 C150.792887 56.47639897 150.792887 56.47639897 181.2651062 67.97473145 C182.84455807 68.57066335 184.42424218 69.16598017 186.00418091 69.76062012 C188.11172118 70.55430351 190.21815785 71.35083829 192.32421875 72.1484375 C193.47784912 72.58446289 194.63147949 73.02048828 195.82006836 73.46972656 C197.26265015 74.0454541 197.26265015 74.0454541 198.734375 74.6328125 C199.48533447 74.93155273 200.23629395 75.23029297 201.01000977 75.53808594 C202.734375 76.6328125 202.734375 76.6328125 204.734375 80.6328125 C204.734375 90.5328125 204.734375 100.4328125 204.734375 110.6328125 C61.514375 110.6328125 -81.705625 110.6328125 -229.265625 110.6328125 C-229.265625 80.6328125 -229.265625 80.6328125 -227.265625 76.6328125 C-224.65380859 75.16699219 -224.65380859 75.16699219 -221.2890625 73.8046875 C-220.67147064 73.55233337 -220.05387878 73.29997925 -219.41757202 73.03997803 C-212.161424 70.11345847 -204.80026447 67.45363619 -197.44033813 64.80200195 C-192.90574293 63.16724861 -188.37676688 61.51706338 -183.84765625 59.8671875 C-182.89684677 59.52099365 -181.94603729 59.1747998 -180.96641541 58.81811523 C-170.47765375 54.99220578 -160.02725236 51.0653994 -149.578125 47.1328125 C-136.06805881 42.05024113 -122.55090478 36.9877018 -109.015625 31.97265625 C-108.36394285 31.73114019 -107.7122607 31.48962414 -107.04083061 31.24078941 C-100.40302451 28.78092584 -93.76439376 26.32331732 -87.12375164 23.8711195 C-74.27358004 19.12481225 -61.4406937 14.34282919 -48.66796875 9.390625 C-46.58036915 8.5852463 -44.49272404 7.77998554 -42.4050293 6.97485352 C-38.59303365 5.50400391 -34.79018433 4.01229452 -30.99145508 2.50756836 C-29.29669683 1.8518997 -27.60164648 1.19698535 -25.90625 0.54296875 C-24.80270424 0.09481308 -24.80270424 0.09481308 -23.67686462 -0.36239624 C-15.50467263 -3.46863396 -8.14229832 -3.20011259 0 0 Z " fill="#000000" transform="translate(268.265625,34.3671875)"/>
<path d="M0 0 C143.22 0 286.44 0 434 0 C432.66426974 16.02876312 429.1373806 25.35341067 416.875 35.8125 C407.32771782 42.83256042 395.66678982 45.35530373 384 44 C372.67304779 41.77153094 363.73703571 36.51073928 356 28 C355.39414062 28.59167969 354.78828125 29.18335938 354.1640625 29.79296875 C343.48795104 39.8613631 332.9149007 44.61275594 318.18359375 44.3125 C304.96646272 43.0151129 295.60824625 36.58609239 286 28 C285.41605469 28.65355469 285.41605469 28.65355469 284.8203125 29.3203125 C275.68538799 39.04458698 264.91290516 43.83595558 251.5625 44.4375 C239.97386355 44.05343856 228.30901207 39.2363969 219.875 31.25 C218 29 218 29 218 27 C217.34 27 216.68 27 216 27 C215.731875 27.59941406 215.46375 28.19882813 215.1875 28.81640625 C211.01018234 36.49772391 201.55124789 40.47938516 193.64453125 43.12109375 C181.73856776 45.99230681 170.35089065 44.16795511 159.8125 38.25 C155.25673728 35.38555519 151.57640677 32.00273341 148 28 C147.030625 28.86625 146.06125 29.7325 145.0625 30.625 C134.67277083 39.41790453 123.88100574 44.87251999 109.91015625 44.3203125 C96.6870676 42.86488529 87.46534449 37.01781048 78 28 C77.61070313 28.43570313 77.22140625 28.87140625 76.8203125 29.3203125 C67.68280596 39.04733559 56.96446114 43.93987871 43.625 44.4375 C32.87037301 44.14372753 23.34636731 40.7721998 15 34 C14.37480469 33.49855469 13.74960937 32.99710938 13.10546875 32.48046875 C5.71289812 25.8609774 1.04545301 15.84167835 0 6 C0 4.02 0 2.04 0 0 Z " fill="#000000" transform="translate(39,160)"/>
<path d="M0 0 C0.06864208 34.69346513 0.12151656 69.38691479 0.15319599 104.08043314 C0.15694818 108.17479734 0.16083114 112.2691614 0.16479492 116.36352539 C0.16558185 117.17865167 0.16636878 117.99377795 0.16717956 118.83360503 C0.18023931 132.03812827 0.20389628 145.24261239 0.23145839 158.4471124 C0.25949677 171.99259275 0.27617294 185.53805259 0.28226548 199.08356076 C0.28638519 207.44424638 0.29940456 215.80482143 0.3237494 224.16547302 C0.33958726 229.89594305 0.34440479 235.62635578 0.34050413 241.35684612 C0.33857952 244.66481243 0.34319507 247.97254409 0.35761642 251.28048515 C0.37248246 254.86534315 0.36897475 258.44972324 0.36076355 262.03459167 C0.36950207 263.08225635 0.3782406 264.12992103 0.38724393 265.20933312 C0.35244914 270.80690015 0.16802584 274.83197416 -4 279 C-5.92578125 279.23828125 -5.92578125 279.23828125 -8.3125 279.3125 C-9.09238281 279.34988281 -9.87226563 279.38726562 -10.67578125 279.42578125 C-13.88256128 278.83832071 -14.90362456 277.45733202 -17 275 C-17.96731567 272.5972805 -17.96731567 272.5972805 -18.63720703 269.86972046 C-18.89984061 268.83016299 -19.16247419 267.79060553 -19.43306637 266.71954632 C-19.8413157 265.01251396 -19.8413157 265.01251396 -20.2578125 263.27099609 C-20.55828019 262.06429418 -20.85874788 260.85759226 -21.16832066 259.61432362 C-21.99396153 256.28637973 -22.80681014 252.95578465 -23.61426473 249.62341285 C-24.47672353 246.07726609 -25.35538873 242.53513696 -26.23216248 238.99250793 C-27.92168245 232.15514809 -29.59631742 225.31422845 -31.26592618 218.47198266 C-33.18966027 210.59125506 -35.12947743 202.71451465 -37.07019269 194.83795488 C-41.23490702 177.93240815 -45.37585459 161.0210931 -49.50776511 144.10750276 C-50.86692159 138.54393436 -52.22757373 132.98073271 -53.5887022 127.41764641 C-57.33488507 112.10634872 -61.07998579 96.79479609 -64.79370117 81.47558594 C-65.53153148 78.43289251 -66.26954039 75.39024251 -67.0078125 72.34765625 C-67.26840297 71.27367144 -67.26840297 71.27367144 -67.53425789 70.17798996 C-69.86422834 60.58312148 -72.24529366 51.00261818 -74.6796875 41.43359375 C-74.95541092 40.34698959 -75.23113434 39.26038544 -75.51521301 38.14085388 C-76.72990012 33.35881887 -77.9535764 28.5795497 -79.19897461 23.80541992 C-79.5977617 22.24795277 -79.99630116 20.69042217 -80.39453125 19.1328125 C-80.57664154 18.45202133 -80.75875183 17.77123016 -80.94638062 17.06980896 C-81.79011823 13.73241639 -82.26197082 11.26706231 -81 8 C-79 7.1875 -79 7.1875 -76 7 C-73.99252171 8.05369901 -72.18986248 9.31361835 -70.31640625 10.58984375 C-58.44276338 17.8181491 -43.24952418 18.871615 -29.875 15.9375 C-20.05371077 13.08745285 -10.7604645 8.51306815 -3.453125 1.28515625 C-2 0 -2 0 0 0 Z " fill="#000000" transform="translate(473,201)"/>
<path d="M0 0 C3.35121419 1.60976705 6.0614859 3.52553143 9 5.8125 C21.84708901 15.25082806 36.28646213 18.50117391 52 17 C60.19910411 15.5138596 67.03362704 12.92913697 73.81640625 8.07421875 C76.60597221 6.70189202 78.08154769 7.12292558 81 8 C82.03717576 11.20783122 81.9319212 13.26966191 81.11592102 16.52285767 C80.89381989 17.4277786 80.67171877 18.33269953 80.44288731 19.2650423 C80.19014514 20.25346213 79.93740297 21.24188196 79.67700195 22.26025391 C79.41625602 23.31098933 79.15551008 24.36172476 78.88686275 25.44430065 C78.01279208 28.95731266 77.12546547 32.4668413 76.23828125 35.9765625 C75.61792513 38.4597998 74.99845626 40.9432589 74.37982178 43.42692566 C73.05730293 48.72952147 71.72938488 54.03071649 70.39651489 59.33071899 C68.30549756 67.64608037 66.22737861 75.96463423 64.15209961 84.28393555 C63.80460204 85.67679263 63.45710124 87.06964891 63.10959721 88.46250439 C62.58856928 90.55088874 62.06755496 92.63927648 61.54660255 94.72767967 C60.50324759 98.90996558 59.45886957 103.09199443 58.41366202 107.27381772 C52.95419629 129.11728811 47.57431203 150.97927988 42.26498413 172.85974121 C41.07343513 177.76956617 39.87778849 182.67838632 38.6809082 187.58691406 C38.48830697 188.37685698 38.29570574 189.16679989 38.0972681 189.98068047 C37.52452774 192.32957967 36.95172589 194.67846387 36.37890625 197.02734375 C34.17234011 206.07556787 31.96876189 215.1244817 29.77685547 224.17626953 C28.18908237 230.73233537 26.59118971 237.28583854 24.98054218 243.83632374 C24.16754831 247.14407814 23.35920503 250.45278059 22.56375122 253.76480103 C21.7117541 257.30226718 20.8425706 260.83505968 19.96875 264.3671875 C19.72491074 265.39812027 19.48107147 266.42905304 19.22984314 267.4912262 C17.05417519 276.1436029 17.05417519 276.1436029 13 279 C9.25609033 279.92866509 5.93552926 279.50374653 2.5625 277.6875 C-0.08748979 274.82551103 -0.12475223 272.08462373 -0.12304783 268.36731434 C-0.12503888 267.4103742 -0.12702993 266.45343406 -0.12908131 265.46749574 C-0.12616847 264.41400538 -0.12325563 263.36051502 -0.12025452 262.27510071 C-0.12110894 261.15772764 -0.12196337 260.04035457 -0.12284368 258.88912171 C-0.12449756 255.12569075 -0.11897857 251.36230385 -0.11352539 247.59887695 C-0.11324347 244.90881245 -0.11335726 242.21875069 -0.1139679 239.52868652 C-0.11449273 233.72722729 -0.11135011 227.9257793 -0.10573006 222.12432289 C-0.09760964 213.73634871 -0.09499928 205.34837996 -0.09374207 196.96040227 C-0.0915524 183.35209778 -0.08489462 169.74379928 -0.07543945 156.13549805 C-0.06626313 142.91479523 -0.05918337 129.69409403 -0.05493164 116.47338867 C-0.05453756 115.25139624 -0.05453756 115.25139624 -0.05413551 114.00471709 C-0.05283049 109.91787755 -0.05156678 105.831038 -0.05032361 101.74419844 C-0.03995365 67.82946128 -0.02233765 33.91473138 0 0 Z " fill="#000000" transform="translate(39,201)"/>
</svg>
