<?xml version="1.0" encoding="UTF-8"?>
<svg version="1.1" xmlns="http://www.w3.org/2000/svg" width="512" height="512">
<path d="M0 0 C0.84046875 -0.04898438 1.6809375 -0.09796875 2.546875 -0.1484375 C9.15420477 1.13101653 13.05126954 7.41203853 16.75 12.5625 C17.80184296 13.99592479 18.85529197 15.42817215 19.91015625 16.859375 C20.45559082 17.60123047 21.00102539 18.34308594 21.56298828 19.10742188 C24.3769927 22.88983476 27.28230716 26.59995068 30.1875 30.3125 C36.43592212 38.31344426 42.61176788 46.36754994 48.77001953 54.43798828 C52.58253539 59.42784325 56.4185218 64.39970368 60.25 69.375 C61.91695292 71.54144651 63.58347413 73.70822497 65.25 75.875 C66.08332547 76.95833938 66.9166588 78.04167272 67.75 79.125 C86.08333333 102.95833333 104.41666667 126.79166667 122.75 150.625 C123.1622583 151.16092773 123.5745166 151.69685547 123.99926758 152.24902344 C124.83507376 153.33558779 125.67084835 154.42217645 126.5065918 155.50878906 C128.55183636 158.16788548 130.59769991 160.8264994 132.64453125 163.484375 C137.91896038 170.33516824 143.17625547 177.19883909 148.42626953 184.06835938 C153.35385391 190.51447094 158.29943004 196.94652742 163.25 203.375 C164.91695292 205.54144651 166.58347413 207.70822497 168.25 209.875 C169.08332547 210.95833938 169.9166588 212.04167272 170.75 213.125 C192.41666667 241.29166667 214.08333333 269.45833333 235.75 297.625 C236.16306396 298.16189453 236.57612793 298.69878906 237.00170898 299.25195312 C237.8296923 300.32850956 238.65733265 301.40532987 239.48461914 302.48242188 C241.64697856 305.29677253 243.81622639 308.10543207 245.99609375 310.90625 C246.44662109 311.48697266 246.89714844 312.06769531 247.36132812 312.66601562 C248.61279617 314.27873218 249.86686314 315.889431 251.12109375 317.5 C255.47181622 323.37547109 257.21942071 327.07114537 256.25 334.375 C254.949544 337.52347243 253.6985648 338.99240061 251.125 341.1875 C247.15793244 342.82607138 243.43274073 343.54273677 239.25 342.375 C234.03195543 338.83773452 230.31485583 334.20202652 226.6875 329.125 C225.64480642 327.70066694 224.60047007 326.27753534 223.5546875 324.85546875 C223.01553711 324.11989746 222.47638672 323.38432617 221.92089844 322.62646484 C219.11579591 318.84670805 216.2135787 315.14378591 213.3125 311.4375 C207.0684721 303.44242388 200.8970334 295.39415204 194.74316406 287.32958984 C192.45955065 284.34028164 190.16845622 281.35676039 187.875 278.375 C187.14539063 277.42625 186.41578125 276.4775 185.6640625 275.5 C183.64732366 272.88933484 181.62483977 270.28338131 179.59912109 267.6796875 C178.97121674 266.87257324 178.34331238 266.06545898 177.69638062 265.23388672 C177.21907501 264.6204541 176.74176941 264.00702148 176.25 263.375 C176.24635437 264.25116974 176.24270874 265.12733948 176.23895264 266.03005981 C176.20104035 274.29888958 176.14415091 282.56732624 176.06609726 290.83587837 C176.02663681 295.08656452 175.99444146 299.33704396 175.97900391 303.58789062 C175.96382765 307.69247233 175.92936559 311.79648569 175.88169098 315.90081406 C175.86688705 317.46439542 175.85895955 319.02805792 175.85811615 320.59170914 C175.8557416 322.7871744 175.82862684 324.98107518 175.79589844 327.17626953 C175.78701599 328.42425323 175.77813354 329.67223694 175.76898193 330.95803833 C175.14691729 335.05369348 173.87977374 337.20025717 171.25 340.375 C168.00838528 342.46661429 165.38937808 342.62766898 161.57398415 342.63506222 C159.82763205 342.6456606 159.82763205 342.6456606 158.04600012 342.6564731 C156.12608758 342.65285047 156.12608758 342.65285047 154.16738892 342.64915466 C152.79465136 342.65360645 151.42191637 342.6589203 150.04918516 342.66502339 C146.27306239 342.67922074 142.49702186 342.68086635 138.72087622 342.68042648 C134.64988339 342.68207314 130.57892459 342.69513672 126.50794983 342.70661926 C117.60517569 342.729479 108.70242538 342.73739073 99.79962587 342.74244571 C94.24225159 342.7457012 88.68488425 342.75222274 83.12751389 342.7594471 C67.74465215 342.77901329 52.36179687 342.79541772 36.97892189 342.79832363 C35.50207485 342.79860499 35.50207485 342.79860499 33.99539252 342.79889202 C31.99939593 342.79925828 30.00339933 342.79962198 28.00740273 342.79998314 C26.52115537 342.80025735 26.52115537 342.80025735 25.00488281 342.80053711 C23.51682454 342.80080793 23.51682454 342.80080793 21.99870448 342.80108423 C5.91746754 342.80462727 -10.1636356 342.83165771 -26.24482612 342.869035 C-42.74995004 342.90709113 -59.25500752 342.9264809 -75.7601763 342.92678314 C-85.02939722 342.92736828 -94.2984585 342.93589634 -103.5676384 342.96478081 C-111.45901734 342.98925855 -119.35017839 342.99660199 -127.241585 342.98153328 C-131.26874548 342.97434983 -135.2954754 342.97528303 -139.32258797 342.99794388 C-143.00904191 343.01848936 -146.69473307 343.01597608 -150.38117833 342.99506903 C-152.34698383 342.98990535 -154.3128063 343.0093876 -156.27851331 343.02973074 C-165.81710723 342.93847085 -165.81710723 342.93847085 -169.49884415 339.98468399 C-173.61160599 335.21690716 -174.00267858 331.49865969 -174.06884766 325.28979492 C-174.07889328 324.59656128 -174.0889389 323.90332764 -174.09928894 323.18908691 C-174.13003363 320.91122217 -174.14713145 318.63347449 -174.1640625 316.35546875 C-174.1827812 314.7707672 -174.20235514 313.18607554 -174.2227478 311.60139465 C-174.274001 307.44058066 -174.31366305 303.27973438 -174.35089111 299.11877441 C-174.39097358 294.86881568 -174.44204654 290.61899048 -174.4921875 286.36914062 C-174.58886609 278.03785175 -174.67329653 269.70649661 -174.75 261.375 C-176.95428649 264.20091888 -179.15695918 267.02809177 -181.359375 269.85546875 C-181.97474121 270.64433472 -182.59010742 271.43320068 -183.22412109 272.24597168 C-187.20202299 277.35461446 -191.1271662 282.49879074 -195 287.6875 C-195.51727158 288.3803157 -196.03454315 289.07313141 -196.56748962 289.78694153 C-197.02603836 290.4012352 -197.4845871 291.01552887 -197.95703125 291.6484375 C-201.30098908 296.12156861 -204.70824861 300.54403151 -208.12109375 304.96484375 C-210.61423288 308.19470118 -213.09353831 311.43501448 -215.57055664 314.67724609 C-216.68473655 316.1352847 -217.79979983 317.59264873 -218.91577148 319.04931641 C-221.50070254 322.42409815 -224.07680188 325.80440597 -226.625 329.20703125 C-227.07037109 329.79742187 -227.51574219 330.3878125 -227.97460938 330.99609375 C-229.16423309 332.57375706 -230.34797364 334.15585174 -231.53125 335.73828125 C-234.26842274 338.99108336 -236.74738219 341.90133735 -240.99609375 342.90625 C-246.3751874 342.82954278 -249.51193424 341.99286101 -253.75 338.375 C-256.25982456 334.61026315 -256.70984639 332.28580676 -256.64453125 327.796875 C-254.75853851 320.5823351 -249.16688698 315.03780734 -244.45556641 309.42480469 C-242.06946154 306.55710694 -239.81542049 303.59754001 -237.5625 300.625 C-235.95846348 298.54156646 -234.3542981 296.45823212 -232.75 294.375 C-231.08304708 292.20855349 -229.41652587 290.04177503 -227.75 287.875 C-226.91667453 286.79166062 -226.0833412 285.70832728 -225.25 284.625 C-224.8375 284.08875 -224.425 283.5525 -224 283 C-182.75 229.375 -141.5 175.75 -30.25 31.125 C-29.83717773 30.5882666 -29.42435547 30.0515332 -28.99902344 29.49853516 C-28.1691972 28.41989081 -27.33912077 27.34143889 -26.50878906 26.26318359 C-24.36966013 23.48466851 -22.23554594 20.70250907 -20.109375 17.9140625 C-6.63196537 0.26125924 -6.63196537 0.26125924 0 0 Z M-19.12719727 191.91210938 C-22.37337108 196.83875319 -25.23947867 201.98221302 -28.125 207.125 C-28.82549877 208.36345337 -29.52660193 209.60156505 -30.22827148 210.83935547 C-31.68270586 213.40622241 -33.13455799 215.97452283 -34.58447266 218.54394531 C-37.64295659 223.95999279 -40.729386 229.36003695 -43.81719971 234.75939941 C-44.81795674 236.50954285 -45.81797016 238.26010953 -46.81787109 240.01074219 C-51.88204822 248.87405592 -56.98041496 257.71738892 -62.08813477 266.55566406 C-67.49346045 275.91490521 -72.85764733 285.29731735 -78.20898438 294.6875 C-81.91875287 301.19208891 -85.66942666 307.66904756 -89.48242188 314.11376953 C-90.83149698 316.08833559 -90.83149698 316.08833559 -90.75 317.375 C-31.02 317.375 28.71 317.375 90.25 317.375 C88.81386092 313.06658276 87.72293907 310.16434128 85.484375 306.41796875 C84.65486328 305.01611328 84.65486328 305.01611328 83.80859375 303.5859375 C83.21175781 302.58820313 82.61492187 301.59046875 82 300.5625 C76.97263435 292.05865376 72.04726527 283.51075698 67.25 274.875 C62.11527029 265.64669386 56.85010602 256.50508694 51.50219727 247.39892578 C47.30480575 240.23270477 43.22543125 233.00707534 39.1875 225.75 C36.87982697 221.62228147 34.56595895 217.49807406 32.25 213.375 C31.6729834 212.34375 31.0959668 211.3125 30.50146484 210.25 C28.80900504 207.24033811 27.09525842 204.24384083 25.375 201.25 C24.87605225 200.35587402 24.37710449 199.46174805 23.86303711 198.54052734 C19.23381783 190.57090985 13.31557991 184.07876945 4.25 181.375 C-5.67801028 179.72033162 -13.44075131 183.9725774 -19.12719727 191.91210938 Z " fill="#000000" transform="translate(255.75,84.625)"/>
</svg>
